<svg width="209" height="25" viewBox="0 0 209 25" fill="none" xmlns="http://www.w3.org/2000/svg">
<path fill-rule="evenodd" clip-rule="evenodd" d="M1.28548 12.5033C0.577155 12.5033 0 11.9309 0 11.2198C0 9.4853 0 6.44133 0 5.03642C0 4.55945 0.209875 4.09982 0.56841 3.77894C1.53034 2.92906 3.47167 1.20328 4.52105 0.266672C4.92331 -0.0888908 5.53544 -0.0888908 5.9377 0.266672C6.98707 1.20328 8.92841 2.92906 9.89034 3.77894C10.2489 4.09982 10.4587 4.55945 10.4587 5.03642C10.4587 6.44133 10.4587 9.4853 10.4587 11.2198C10.4587 11.9222 9.88159 12.4946 9.17327 12.4946C7.15322 12.5033 3.29678 12.5033 1.28548 12.5033ZM43.103 12.5033C42.3947 12.5033 41.8175 11.9309 41.8175 11.2284C41.8175 9.49397 41.8175 6.45 41.8175 5.0451C41.8175 4.56812 42.0274 4.10849 42.3859 3.78762C43.3478 2.93773 45.2892 1.21195 46.3386 0.275345C46.7408 -0.0802185 47.3529 -0.0802185 47.7552 0.275345C48.8046 1.21195 50.7459 2.93773 51.7078 3.78762C52.0664 4.10849 52.2762 4.56812 52.2762 5.0451C52.2762 6.45 52.2762 9.49397 52.2762 11.2284C52.2762 11.9309 51.6991 12.5033 50.9908 12.5033C48.9707 12.5033 45.1143 12.5033 43.103 12.5033ZM22.1942 12.5033C21.4859 12.5033 20.9088 11.9309 20.9088 11.2284C20.9088 9.49397 20.9088 6.45 20.9088 5.0451C20.9088 4.56812 21.1186 4.10849 21.4772 3.78762C22.4391 2.93773 24.3804 1.21195 25.4298 0.275345C25.8321 -0.0802185 26.4442 -0.0802185 26.8465 0.275345C27.8958 1.21195 29.8372 2.93773 30.7991 3.78762C31.1576 4.10849 31.3675 4.56812 31.3675 5.0451C31.3675 6.45 31.3675 9.49397 31.3675 11.2284C31.3675 11.9309 30.7903 12.5033 30.082 12.5033C28.062 12.5033 24.2055 12.5033 22.1942 12.5033ZM32.653 25C31.9447 25 31.3675 24.4276 31.3675 23.7252C31.3675 21.9907 31.3675 18.9468 31.3675 17.5418C31.3675 17.0649 31.5774 16.6052 31.9359 16.2844C32.8978 15.4345 34.8392 13.7087 35.8885 12.7721C36.2908 12.4165 36.9029 12.4165 37.3052 12.7721C38.3546 13.7087 40.2959 15.4345 41.2578 16.2844C41.6164 16.6052 41.8262 17.0649 41.8262 17.5418C41.8262 18.9468 41.8262 21.9907 41.8262 23.7252C41.8262 24.4276 41.2491 25 40.5408 25C38.5207 25 34.6555 25 32.653 25ZM19.6145 25H11.7355C11.0272 25 10.45 24.4276 10.45 23.7252C10.45 21.9907 10.45 18.9468 10.45 17.5418C10.45 17.0649 10.6599 16.6052 11.0184 16.2844C11.9803 15.4345 13.9217 13.7087 14.9711 12.7721C15.3733 12.4165 15.9854 12.4165 16.3877 12.7721C17.4371 13.7087 19.3784 15.4345 20.3403 16.2844C20.6989 16.6052 20.9088 17.0649 20.9088 17.5418C20.9088 18.9468 20.9088 21.9907 20.9088 23.7252C20.9088 24.4276 20.3316 25 19.6145 25Z" fill="#FF7200"/>
<path d="M116.681 21.5215H114.898V9.16355H118.553V15.9453L118.579 15.9192L125.041 9.16355H127.507V21.5215H123.852V14.7398L117.355 21.5215H116.681ZM87.6576 21.5215H85.8736V9.16355H89.529V15.9453L89.5377 15.9366L96.0263 9.16355H98.4924V21.5215H94.837V14.7398L88.3397 21.5215H87.6576ZM112.633 12.3896H108.426V21.5215H104.684V12.3896H100.477V9.16355H112.633V12.3896ZM83.5913 19.605C81.7636 21.3047 79.2364 22.3541 76.4643 22.3541C71.2437 22.3541 67.0024 18.1047 67.0024 12.8753C67.0024 7.6459 71.2437 3.39648 76.4643 3.39648C79.044 3.39648 81.4051 4.2984 83.189 5.79003L80.8367 8.66923C79.7785 7.68059 78.3094 7.06486 76.5954 7.06486C73.4998 7.06486 70.9901 9.66654 70.9901 12.8753C70.9901 16.084 73.4998 18.6857 76.5954 18.6857C78.4406 18.6857 79.9972 17.9833 81.064 16.8559L83.5913 19.605Z" fill="#FF7200"/>
<path d="M168.118 15.3464C168.337 17.341 169.465 18.9628 171.826 18.9628C173.418 18.9628 175.385 17.9307 175.385 15.3724C175.385 13.4212 174.065 12.0856 172.132 12.0856C171.922 12.0856 171.712 12.103 171.52 12.129C170.672 12.2591 168.853 12.8315 168.118 15.3464ZM155.377 18.9974C153.471 18.9974 151.757 17.3237 151.757 15.4071C151.757 13.4559 153.479 11.7561 155.377 11.7561C157.493 11.7561 159.181 13.4559 159.181 15.4071C159.181 17.3237 157.493 18.9974 155.377 18.9974ZM146.169 21.5211H142.636V15.4852L138.937 20.1682H137.293L133.594 15.4852V21.5211H130.061V12.3978V9.17175H132.536L138.124 15.9882L143.712 9.17175H146.186V21.5211H146.169ZM182.932 21.5211H181.148V9.16308H184.803V15.9448L191.292 9.16308H191.974H193.749V21.5211H190.094V14.7307L183.596 21.5211H182.932ZM209 21.5211H205.467V12.3371H201.873V16.8727C201.873 20.6972 199.215 22.1715 196.119 21.5211V18.7286C197.632 18.7286 198.139 18.4164 198.139 16.4738V9.16308H209V21.5211ZM173.418 8.97229C176.819 9.32785 178.822 11.5826 178.822 15.3724C178.699 19.2403 176.365 22.3449 171.948 22.3449C167.034 22.3449 164.647 19.3964 164.647 13.7334C164.647 9.25847 166.361 6.09309 170.234 4.54076C171.922 3.87299 173.759 3.47407 175.481 2.56348L177.169 5.20852C175.079 7.19447 169.36 6.54405 167.9 10.9929C168.949 9.80483 170.199 9.28449 171.24 9.06768C171.66 8.97229 172.071 8.92025 172.438 8.92025C172.456 8.92025 172.464 8.92025 172.482 8.92025C173.05 8.91158 173.418 8.97229 173.418 8.97229ZM155.377 8.3132C151.451 8.3132 148.198 11.5046 148.198 15.4071C148.198 19.2403 151.451 22.4403 155.377 22.4403C159.365 22.4403 162.618 19.2489 162.618 15.4071C162.618 11.5133 159.365 8.3132 155.377 8.3132Z" fill="black"/>
</svg>
