<svg width="219" height="63" viewBox="0 0 219 63" version="1.1" xmlns="http://www.w3.org/2000/svg" xmlns:xlink="http://www.w3.org/1999/xlink">
<g id="Canvas" fill="none">
<g id="GooglePlay">
<g id="Vector">
<path d="M 218.204 56.2279C 218.196 57.8879 217.529 59.4769 216.35 60.6476C 215.17 61.8183 213.575 62.4755 211.911 62.4754L 6.29277 62.4754C 4.63215 62.4669 3.0415 61.807 1.86417 60.6381C 0.686845 59.4692 0.0172763 57.8852 0 56.2279L 0 6.28043C 0.00865616 4.61742 0.674422 3.02498 1.85267 1.84904C 3.03093 0.673099 4.62649 0.00863918 6.29277 0L 211.911 0C 213.58 0 215.181 0.661686 216.361 1.83949C 217.541 3.0173 218.204 4.61475 218.204 6.28043L 218.204 56.2279Z" fill="black"/>
</g>
<g id="Vector_2">
<path d="M 44.2471 7.79456C 42.8671 7.80106 41.5199 8.21541 40.3756 8.98533C 39.2313 9.75525 38.3412 10.8462 37.8176 12.1205C 37.294 13.3949 37.1604 14.7955 37.4336 16.1455C 37.7068 17.4956 38.3746 18.7346 39.3528 19.7062C 40.3309 20.6778 41.5755 21.3385 42.9294 21.6048C 44.2834 21.8711 45.6861 21.7312 46.9605 21.2026C 48.2348 20.674 49.3237 19.7806 50.0898 18.6349C 50.8558 17.4893 51.2646 16.1428 51.2647 14.7655C 51.2827 13.8423 51.1133 12.9251 50.7666 12.069C 50.4199 11.2129 49.9031 10.4358 49.2474 9.78441C 48.5917 9.13304 47.8106 8.62093 46.9512 8.27894C 46.0918 7.93696 45.172 7.77219 44.2471 7.79456ZM 44.2471 18.9744C 43.4038 19.0271 42.564 18.8257 41.8368 18.3965C 41.1095 17.9672 40.5282 17.3298 40.1682 16.5668C 39.8082 15.8039 39.6862 14.9506 39.8179 14.1176C 39.9496 13.2846 40.329 12.5103 40.9069 11.8951C 41.4848 11.2799 42.2346 10.8521 43.059 10.6672C 43.8834 10.4824 44.7444 10.5489 45.5305 10.8583C 46.3165 11.1676 46.9913 11.7055 47.4674 12.4022C 47.9435 13.0989 48.199 13.9222 48.2006 14.7655C 48.2272 15.3032 48.1451 15.8407 47.9592 16.346C 47.7733 16.8514 47.4873 17.3142 47.1184 17.7069C 46.7495 18.0997 46.3051 18.4143 45.8119 18.632C 45.3186 18.8498 44.7864 18.9662 44.2471 18.9744ZM 28.9929 7.79456C 27.6114 7.79456 26.261 8.2034 25.1124 8.96938C 23.9638 9.73536 23.0685 10.8241 22.5399 12.0978C 22.0112 13.3716 21.8729 14.7732 22.1424 16.1255C 22.4119 17.4777 23.0772 18.7198 24.054 19.6947C 25.0308 20.6696 26.2753 21.3335 27.6302 21.6025C 28.9851 21.8715 30.3895 21.7334 31.6658 21.2058C 32.942 20.6782 34.0329 19.7847 34.8004 18.6384C 35.5679 17.492 35.9775 16.1442 35.9775 14.7655C 35.9908 13.8464 35.8193 12.934 35.473 12.0822C 35.1267 11.2304 34.6127 10.4567 33.9614 9.80669C 33.3102 9.15672 32.5349 8.64374 31.6814 8.29812C 30.828 7.9525 29.9138 7.78127 28.9929 7.79456ZM 28.9929 18.9744C 27.8744 18.9744 26.8018 18.5309 26.0109 17.7416C 25.22 16.9523 24.7757 15.8818 24.7757 14.7655C 24.7757 13.6492 25.22 12.5787 26.0109 11.7894C 26.8018 11.0001 27.8744 10.5566 28.9929 10.5566C 30.1113 10.5566 31.184 11.0001 31.9748 11.7894C 32.7657 12.5787 33.21 13.6492 33.21 14.7655C 33.21 15.8818 32.7657 16.9523 31.9748 17.7416C 31.184 18.5309 30.1113 18.9744 28.9929 18.9744ZM 10.8394 9.86612L 10.8394 12.8255L 17.9229 12.8255C 17.8639 14.2096 17.355 15.537 16.4732 16.6069C 15.7595 17.3237 14.9057 17.8863 13.9648 18.2597C 13.0239 18.633 12.0161 18.8091 11.0041 18.7771C 8.91574 18.7771 6.91291 17.9491 5.43621 16.4753C 3.95951 15.0015 3.12991 13.0026 3.12991 10.9183C 3.12991 8.83406 3.95951 6.83516 5.43621 5.36136C 6.91291 3.88755 8.91574 3.05958 11.0041 3.05958C 12.9902 3.03909 14.9056 3.79432 16.3414 5.16402L 18.4171 3.09246C 17.4299 2.09142 16.2491 1.3012 14.9465 0.769841C 13.6438 0.238486 12.2464 -0.0229019 10.8394 0.00157285C 9.41593 0.00157282 8.00642 0.281393 6.69133 0.825054C 5.37623 1.36872 4.18131 2.16557 3.17478 3.17012C 2.16825 4.17468 1.36983 5.36726 0.8251 6.67978C 0.28037 7.99229 2.28423e-07 9.39903 2.28423e-07 10.8197C 2.28423e-07 12.2403 0.28037 13.6471 0.8251 14.9596C 1.36983 16.2721 2.16825 17.4647 3.17478 18.4693C 4.18131 19.4738 5.37623 20.2707 6.69133 20.8143C 8.00642 21.358 9.41593 21.6378 10.8394 21.6378C 12.1662 21.7065 13.4929 21.5001 14.7358 21.0317C 15.9788 20.5633 17.111 19.8431 18.0613 18.9163C 19.0115 17.9896 19.7591 16.8764 20.257 15.6471C 20.7548 14.4177 20.9921 13.0987 20.9539 11.7733C 20.9541 11.1558 20.899 10.5395 20.7892 9.93188L 10.8394 9.86612ZM 85.1006 12.1678C 84.6555 10.9167 83.8413 9.82925 82.7651 9.04867C 81.689 8.26808 80.4013 7.83088 79.0714 7.79456C 78.1718 7.79294 77.2814 7.9752 76.455 8.33009C 75.6287 8.68498 74.8839 9.20499 74.2666 9.85808C 73.6492 10.5112 73.1724 11.2835 72.8655 12.1275C 72.5587 12.9715 72.4282 13.8693 72.4822 14.7655C 72.4599 15.6815 72.6231 16.5925 72.9621 17.4439C 73.3011 18.2954 73.8088 19.0698 74.4549 19.7207C 75.1009 20.3717 75.872 20.8857 76.7219 21.2321C 77.5718 21.5784 78.483 21.75 79.4009 21.7365C 80.5479 21.7387 81.6777 21.4576 82.6894 20.9183C 83.7011 20.379 84.5635 19.5982 85.1995 18.6456L 82.8273 17.0672C 82.4812 17.6342 81.9984 18.1058 81.423 18.4389C 80.8475 18.772 80.1977 18.9561 79.5327 18.9744C 78.8376 18.9832 78.1551 18.7885 77.5696 18.4145C 76.9841 18.0405 76.5212 17.5036 76.2381 16.8699L 85.3972 13.1543L 85.1006 12.1678ZM 75.5791 14.5025C 75.548 13.9944 75.6182 13.4853 75.7856 13.0045C 75.953 12.5237 76.2144 12.0809 76.5546 11.7016C 76.8947 11.3224 77.3069 11.0143 77.7672 10.7952C 78.2275 10.576 78.7268 10.4503 79.2362 10.4251C 79.7625 10.3946 80.2862 10.5185 80.7428 10.7814C 81.1994 11.0443 81.569 11.4348 81.806 11.9048L 75.5791 14.5025ZM 68.0014 21.2432L 71.0655 21.2432L 71.0655 0.856501L 68.0014 0.856501L 68.0014 21.2432ZM 62.9936 9.30713C 62.5214 8.80795 61.9481 8.41487 61.3119 8.15407C 60.6756 7.89326 59.991 7.77071 59.3036 7.79456C 57.4511 7.79456 55.6746 8.529 54.3647 9.8363C 53.0548 11.1436 52.3189 12.9167 52.3189 14.7655C 52.3189 16.6143 53.0548 18.3874 54.3647 19.6947C 55.6746 21.002 57.4511 21.7365 59.3036 21.7365C 59.9994 21.7545 60.6907 21.6195 61.3284 21.3411C 61.9661 21.0626 62.5346 20.6475 62.9936 20.1252L 62.9936 21.1446C 63.0722 21.6643 63.0343 22.195 62.8825 22.6983C 62.7307 23.2017 62.4688 23.6651 62.1158 24.0552C 61.7628 24.4452 61.3274 24.7522 60.8411 24.954C 60.3548 25.1558 59.8296 25.2473 59.3036 25.2219C 58.539 25.1989 57.7979 24.9532 57.1715 24.515C 56.5451 24.0768 56.0608 23.4653 55.7783 22.7558L 53.1096 23.8409C 53.6072 25.0689 54.4648 26.1183 55.57 26.8516C 56.6752 27.585 57.9765 27.9683 59.3036 27.9511C 60.2382 27.9943 61.1708 27.8311 62.0349 27.4732C 62.899 27.1153 63.6734 26.5715 64.3027 25.8806C 64.9321 25.1897 65.4009 24.3687 65.6758 23.4762C 65.9506 22.5836 66.0248 21.6415 65.8929 20.7171L 65.8929 8.22203L 62.9936 8.22203L 62.9936 9.30713ZM 59.4683 18.9086C 58.9361 18.8961 58.4118 18.7773 57.9263 18.5593C 57.4409 18.3413 57.0041 18.0284 56.6417 17.6392C 56.2794 17.25 55.9988 16.7923 55.8165 16.2931C 55.6343 15.7938 55.5541 15.2633 55.5806 14.7326C 55.5496 14.1977 55.6262 13.6619 55.806 13.157C 55.9858 12.6521 56.2652 12.1883 56.6275 11.7929C 56.9899 11.3975 57.428 11.0786 57.9159 10.855C 58.4038 10.6313 58.9317 10.5075 59.4683 10.4909C 59.9953 10.5155 60.5118 10.646 60.9871 10.8746C 61.4623 11.1032 61.8864 11.4252 62.234 11.8212C 62.5816 12.2173 62.8456 12.6793 63.0101 13.1795C 63.1745 13.6798 63.2362 14.208 63.1913 14.7326C 63.2316 15.2529 63.1663 15.776 62.9993 16.2705C 62.8323 16.7651 62.5671 17.2209 62.2196 17.6108C 61.872 18.0006 61.4492 18.3165 60.9765 18.5395C 60.5037 18.7625 59.9908 18.8881 59.4683 18.9086ZM 99.4323 0.856501L 92.25 0.856501L 92.25 21.309L 95.2811 21.309L 95.2811 13.5489L 99.5641 13.5489C 101.251 13.5489 102.868 12.8803 104.06 11.6901C 105.253 10.5 105.923 8.8858 105.923 7.20269C 105.923 5.51957 105.253 3.9054 104.06 2.71526C 102.868 1.52511 101.251 0.856501 99.5641 0.856501L 99.4323 0.856501ZM 99.5641 10.721L 95.1493 10.721L 95.1493 3.68434L 99.4982 3.68434C 100.433 3.68434 101.33 4.05502 101.991 4.71484C 102.652 5.37466 103.024 6.26956 103.024 7.20269C 103.024 8.13581 102.652 9.03072 101.991 9.69054C 101.33 10.3504 100.433 10.721 99.4982 10.721L 99.5641 10.721ZM 118.409 7.76168C 117.275 7.71113 116.15 7.99624 115.177 8.58123C 114.204 9.16623 113.426 10.025 112.94 11.0499L 115.675 12.1678C 115.932 11.6236 116.352 11.1728 116.878 10.8781C 117.403 10.5834 118.008 10.4596 118.607 10.5238C 118.998 10.4735 119.394 10.5022 119.774 10.6083C 120.153 10.7143 120.507 10.8955 120.814 11.141C 121.121 11.3865 121.376 11.6913 121.563 12.0372C 121.75 12.3831 121.865 12.763 121.902 13.1543L 121.902 13.3845C 120.891 12.8393 119.756 12.5673 118.607 12.5953C 115.708 12.5953 112.71 14.2065 112.71 17.1988C 112.739 17.8326 112.895 18.4542 113.17 19.0265C 113.444 19.5989 113.831 20.1104 114.307 20.5306C 114.784 20.9508 115.34 21.2712 115.942 21.4727C 116.545 21.6742 117.183 21.7527 117.816 21.7036C 118.56 21.7255 119.296 21.5554 119.954 21.2097C 120.612 20.8641 121.17 20.3546 121.572 19.7307L 121.572 21.309L 124.538 21.309L 124.538 13.4174C 124.547 12.6236 124.387 11.837 124.07 11.1092C 123.752 10.3814 123.284 9.72891 122.696 9.19466C 122.108 8.66041 121.413 8.25651 120.657 8.00952C 119.901 7.76254 119.102 7.67807 118.311 7.76168L 118.409 7.76168ZM 117.948 18.9744C 116.927 18.9744 115.543 18.4811 115.543 17.2316C 115.543 15.9821 117.289 15.0614 118.838 15.0614C 119.816 15.0373 120.783 15.2758 121.638 15.752C 121.535 16.6448 121.111 17.47 120.444 18.0746C 119.778 18.6792 118.915 19.0222 118.014 19.0401L 117.948 18.9744ZM 135.344 8.28779L 131.786 17.1001L 128.129 8.22203L 124.834 8.22203L 130.303 20.6185L 127.173 27.4908L 130.468 27.4908L 138.869 8.22203L 135.344 8.28779ZM 107.801 21.4405L 110.865 21.4405L 110.865 0.856501L 107.801 0.856501L 107.801 21.4405Z" transform="translate(65.8931 26.3037)" fill="white"/>
</g>
<g id="Vector_3">
<path d="M 0.763669 0.131527C 0.234694 0.766073 -0.0358033 1.57597 0.00590106 2.40037L 0.00590106 38.5704C -0.0442539 39.4059 0.226749 40.2291 0.763669 40.8721L 21.0257 20.6498L 21.0257 20.2552L 0.895455 -6.27171e-08L 0.763669 0.131527Z" transform="translate(14.8195 10.7522)" fill="#70C8F2"/>
</g>
<g id="Vector_4">
<path d="M 2.51361e-07 6.67501L 2.51361e-07 7.16823L 6.85286 13.909L 14.8588 9.37132C 15.3593 9.21313 15.7963 8.89997 16.1064 8.47725C 16.4166 8.05453 16.5838 7.5442 16.5838 7.02027C 16.5838 6.49633 16.4166 5.98601 16.1064 5.56328C 15.7963 5.14056 15.3593 4.8274 14.8588 4.66922L 6.85286 3.13585e-07L 2.51361e-07 6.67501Z" transform="translate(35.9778 24.3322)" fill="url(#paint0_linear)"/>
</g>
<g id="Vector_5">
<path d="M 6.28403e-08 20.3867C 0.46994 20.7547 1.05 20.9547 1.64732 20.9547C 2.24465 20.9547 2.8247 20.7547 3.29464 20.3867L 27.2467 6.90518L 20.328 0L 6.28403e-08 20.3867Z" transform="translate(15.5835 31.2377)" fill="url(#paint1_linear)"/>
</g>
<g id="Vector_6">
<path d="M 6.28403e-08 0.65814L 20.3938 21.012L 27.2467 14.1068L 3.39348 0.559495C 2.84104 0.208791 2.20304 0.0154926 1.54848 0.000503935C 1.25838 -0.00593677 0.970236 0.0493833 0.703232 0.162779C 0.436229 0.276174 0.196497 0.445043 6.28403e-08 0.65814Z" transform="translate(15.5835 10.2258)" fill="url(#paint2_linear)"/>
</g>
<g id="Vector_7">
<path d="M 1.21902 12.0019L 2.76498e-06 12.0019L 2.76498e-06 8.71368L 0.955446 8.71368C 1.43181 8.22214 1.7916 7.63017 2.00827 6.98142C 2.22495 6.33266 2.293 5.64365 2.20741 4.96515L 2.20741 0L 8.7967 0L 8.7967 8.71368L 9.91688 8.71368L 9.91688 12.0019L 8.69786 12.0019L 8.69786 9.86454L 1.21902 9.86454L 1.21902 12.0019ZM 3.45938 4.96515C 3.56064 6.2809 3.23738 7.59447 2.53687 8.71368L 7.51179 8.71368L 7.51179 1.31527L 3.45938 1.31527L 3.45938 4.96515Z" transform="translate(66.2881 9.86458)" fill="white"/>
</g>
<g id="Vector_8">
<path d="M 1.21902 12.0019L 2.76498e-06 12.0019L 2.76498e-06 8.71368L 0.955446 8.71368C 1.43181 8.22214 1.7916 7.63017 2.00827 6.98142C 2.22495 6.33266 2.293 5.64365 2.20741 4.96515L 2.20741 0L 8.7967 0L 8.7967 8.71368L 9.91688 8.71368L 9.91688 12.0019L 8.69786 12.0019L 8.69786 9.86454L 1.21902 9.86454L 1.21902 12.0019ZM 3.45938 4.96515C 3.56064 6.2809 3.23738 7.59447 2.53687 8.71368L 7.51179 8.71368L 7.51179 1.31527L 3.45938 1.31527L 3.45938 4.96515Z" stroke-width="0.15" stroke-miterlimit="10" transform="translate(66.2881 9.86458)" stroke="white"/>
</g>
<g id="Vector_9">
<path d="M 8.666 8.68412C 8.19597 9.16573 7.63165 9.54564 7.00817 9.8002C 6.38468 10.0548 5.71537 10.1785 5.04189 10.1638C 4.37312 10.1799 3.70831 10.0567 3.08997 9.80191C 2.47162 9.54713 1.91332 9.16642 1.45073 8.68412C 0.504737 7.70552 -0.0161962 6.39393 0.00108637 5.03424C -0.0129012 4.36018 0.10812 3.69012 0.357052 3.06337C 0.605983 2.43661 0.977815 1.86578 1.45073 1.38436C 1.91799 0.923975 2.47473 0.56394 3.08668 0.326428C 3.69862 0.0889163 4.35281 -0.0210442 5.00895 0.00331934C 5.68243 -0.0114114 6.35174 0.112356 6.97522 0.366918C 7.59871 0.62148 8.16303 1.00139 8.63306 1.483C 9.10299 1.96657 9.47288 2.53779 9.72161 3.16404C 9.97035 3.79029 10.093 4.4593 10.0827 5.13288C 10.1 6.49257 9.57905 7.80416 8.63306 8.78276L 8.666 8.68412ZM 2.37323 7.86207C 3.08704 8.55701 4.04472 8.94598 5.04189 8.94598C 6.03907 8.94598 6.99675 8.55701 7.71055 7.86207C 8.0832 7.49376 8.37518 7.05225 8.568 6.56548C 8.76082 6.07872 8.85029 5.5573 8.83073 5.03424C 8.85029 4.51117 8.76082 3.98976 8.568 3.50299C 8.37518 3.01622 8.0832 2.57471 7.71055 2.2064C 6.99675 1.51146 6.03907 1.12249 5.04189 1.12249C 4.04472 1.12249 3.08704 1.51146 2.37323 2.2064C 2.01128 2.58091 1.7285 3.02426 1.54172 3.51006C 1.35494 3.99587 1.26798 4.51421 1.286 5.03424C 1.26798 5.55427 1.35494 6.0726 1.54172 6.55841C 1.7285 7.04421 2.01128 7.48756 2.37323 7.86207Z" transform="translate(77.3568 9.86116)" fill="white"/>
</g>
<g id="Vector_10">
<path d="M 8.666 8.68412C 8.19597 9.16573 7.63165 9.54564 7.00817 9.8002C 6.38468 10.0548 5.71537 10.1785 5.04189 10.1638C 4.37312 10.1799 3.70831 10.0567 3.08997 9.80191C 2.47162 9.54713 1.91332 9.16643 1.45073 8.68412C 0.504737 7.70552 -0.0161962 6.39393 0.00108637 5.03424C -0.0129012 4.36018 0.10812 3.69012 0.357052 3.06337C 0.605983 2.43661 0.977815 1.86578 1.45073 1.38436C 1.91799 0.923975 2.47473 0.56394 3.08668 0.326428C 3.69862 0.0889163 4.35281 -0.0210442 5.00895 0.00331934C 5.68243 -0.0114114 6.35174 0.112356 6.97522 0.366918C 7.59871 0.62148 8.16303 1.00139 8.63306 1.483C 9.10299 1.96657 9.47288 2.53779 9.72161 3.16404C 9.97035 3.79029 10.093 4.4593 10.0827 5.13288C 10.0831 6.45393 9.57611 7.72488 8.666 8.68412L 8.666 8.68412ZM 2.37323 7.86207C 3.08704 8.55701 4.04472 8.94598 5.04189 8.94598C 6.03907 8.94598 6.99675 8.55701 7.71055 7.86207C 8.0832 7.49376 8.37518 7.05225 8.568 6.56548C 8.76082 6.07872 8.85029 5.5573 8.83073 5.03424C 8.85029 4.51117 8.76082 3.98976 8.568 3.50299C 8.37518 3.01622 8.0832 2.57471 7.71055 2.2064C 6.99675 1.51146 6.03907 1.12249 5.04189 1.12249C 4.04472 1.12249 3.08704 1.51146 2.37323 2.2064C 2.01128 2.58091 1.7285 3.02426 1.54172 3.51006C 1.35494 3.99587 1.26798 4.51421 1.286 5.03424C 1.26798 5.55427 1.35494 6.0726 1.54172 6.55841C 1.7285 7.04421 2.01128 7.48756 2.37323 7.86207L 2.37323 7.86207Z" stroke-width="0.15" stroke-miterlimit="10" transform="translate(77.3568 9.86116)" stroke="white"/>
</g>
<g id="Vector_11">
<path d="M 5.10779 10.1634C 4.42932 10.1787 3.75489 10.0554 3.12597 9.80089C 2.49705 9.54642 1.92695 9.16622 1.45073 8.68368C 0.977817 8.20226 0.605986 7.63142 0.357054 7.00467C 0.108123 6.37791 -0.0128987 5.70786 0.00108888 5.0338C -0.00344186 4.3663 0.12604 3.70466 0.381901 3.08793C 0.637763 2.47119 1.01482 1.91185 1.49081 1.44292C 1.9668 0.973997 2.53209 0.60498 3.15331 0.357652C 3.77453 0.110323 4.43909 -0.0103061 5.10779 0.00288379C 5.79013 -0.0216741 6.46898 0.110885 7.09174 0.39029C 7.71449 0.669695 8.26443 1.08844 8.69895 1.61409L 7.84234 2.46902C 7.51862 2.05909 7.10176 1.73196 6.62625 1.51468C 6.15074 1.2974 5.63024 1.19623 5.10779 1.21951C 4.59354 1.20514 4.08189 1.2973 3.60512 1.49017C 3.12835 1.68304 2.6968 1.97244 2.33771 2.3401C 1.97861 2.70776 1.69976 3.1457 1.51875 3.62631C 1.33773 4.10691 1.25848 4.61974 1.286 5.13245C 1.26607 5.6527 1.35216 6.17157 1.53904 6.65764C 1.72593 7.14372 2.00972 7.58688 2.37323 7.96028C 2.73349 8.31403 3.16101 8.59227 3.63064 8.77862C 4.10027 8.96498 4.60251 9.05568 5.10779 9.04538C 5.68662 9.04978 6.25913 8.92512 6.78352 8.6805C 7.30792 8.43589 7.77096 8.07749 8.13886 7.63146L 8.99547 8.48639C 8.5568 9.05257 7.9776 9.49461 7.3152 9.76878C 6.62633 10.098 5.87153 10.2666 5.10779 10.262" transform="translate(88.7236 9.86116)" fill="white"/>
</g>
<g id="Vector_12">
<path d="M 5.10779 10.1634C 4.42932 10.1787 3.75489 10.0554 3.12597 9.80089C 2.49705 9.54642 1.92695 9.16622 1.45073 8.68368C 0.977817 8.20226 0.605986 7.63142 0.357054 7.00467C 0.108123 6.37791 -0.0128987 5.70786 0.00108888 5.0338C -0.00344186 4.36631 0.12604 3.70466 0.381901 3.08793C 0.637763 2.47119 1.01482 1.91185 1.49081 1.44292C 1.9668 0.973997 2.53209 0.60498 3.15331 0.357652C 3.77453 0.110323 4.43909 -0.0103061 5.10779 0.00288379C 5.79013 -0.0216741 6.46898 0.110885 7.09174 0.39029C 7.71449 0.669695 8.26443 1.08844 8.69895 1.61409L 7.84234 2.46902C 7.51862 2.05909 7.10176 1.73196 6.62625 1.51468C 6.15074 1.2974 5.63024 1.19623 5.10779 1.21951C 4.59354 1.20514 4.08189 1.2973 3.60512 1.49017C 3.12835 1.68304 2.6968 1.97244 2.33771 2.3401C 1.97861 2.70776 1.69976 3.1457 1.51875 3.62631C 1.33773 4.10691 1.25848 4.61974 1.286 5.13245C 1.26607 5.6527 1.35216 6.17157 1.53904 6.65764C 1.72593 7.14372 2.00972 7.58688 2.37323 7.96028C 2.73349 8.31403 3.16101 8.59227 3.63064 8.77862C 4.10027 8.96498 4.60251 9.05568 5.10779 9.04538C 5.68662 9.04978 6.25913 8.92512 6.78352 8.6805C 7.30792 8.43589 7.77096 8.07749 8.13886 7.63147L 8.99547 8.48639C 8.5568 9.05257 7.9776 9.49461 7.3152 9.76878C 6.61841 10.0641 5.86394 10.1989 5.10779 10.1634L 5.10779 10.1634Z" stroke-width="0.15" stroke-miterlimit="10" transform="translate(88.7236 9.86116)" stroke="white"/>
</g>
<g id="Vector_13">
<path d="M 3.98652 9.79878L 2.73455 9.79878L 2.73455 1.18375L 0 1.18375L 0 -1.25434e-07L 6.75402 -1.25434e-07L 6.75402 1.18375L 3.98652 1.18375L 3.98652 9.79878Z" transform="translate(98.8396 9.99599)" fill="white"/>
</g>
<g id="Vector_14">
<path d="M 3.98652 9.79878L 2.73455 9.79878L 2.73455 1.18375L 0 1.18375L 0 -1.25434e-07L 6.75402 -1.25434e-07L 6.75402 1.18375L 3.98652 1.18375L 3.98652 9.79878Z" stroke-width="0.15" stroke-miterlimit="10" transform="translate(98.8396 9.99599)" stroke="white"/>
</g>
<g id="Vector_15">
<path d="M 7.84126 0L 4.1183 8.38486C 3.96746 8.88391 3.66403 9.3234 3.25049 9.64179C 2.83695 9.96018 2.334 10.1415 1.81205 10.1605C 1.47462 10.1385 1.14722 10.0371 0.856612 9.86454L 1.18607 8.71368C 1.40306 8.76191 1.62802 8.76191 1.845 8.71368C 2.07172 8.77363 2.31016 8.77363 2.53688 8.71368C 2.71747 8.53394 2.86275 8.32204 2.96518 8.08893L 3.3276 7.29976L -2.51361e-06 0L 1.48259 0L 3.92063 5.62279L 6.35866 0L 7.84126 0Z" transform="translate(106.417 9.86458)" fill="white"/>
</g>
<g id="Vector_16">
<path d="M 7.84126 0L 4.1183 8.38486C 3.96746 8.88392 3.66403 9.3234 3.25049 9.64179C 2.83695 9.96018 2.334 10.1415 1.81205 10.1605C 1.47462 10.1385 1.14722 10.0371 0.856612 9.86454L 1.18607 8.71368C 1.40306 8.76191 1.62802 8.76191 1.845 8.71368C 2.07172 8.77363 2.31016 8.77363 2.53688 8.71368C 2.71747 8.53394 2.86275 8.32204 2.96518 8.08893L 3.3276 7.29976L -2.51361e-06 0L 1.48259 0L 3.92063 5.62279L 6.35866 0L 7.84126 0Z" stroke-width="0.15" stroke-miterlimit="10" transform="translate(106.417 9.86458)" stroke="white"/>
</g>
<g id="Vector_17">
<path d="M 2.01089e-06 9.79878L 2.01089e-06 -1.25434e-07L 7.11643 -1.25434e-07L 7.11643 9.79878L 5.86446 9.79878L 5.86446 1.18375L 1.28491 1.18375L 1.28491 9.79878L 2.01089e-06 9.79878Z" transform="translate(115.675 9.99599)" fill="white"/>
</g>
<g id="Vector_18">
<path d="M 2.01089e-06 9.79878L 2.01089e-06 -1.25434e-07L 7.11643 -1.25434e-07L 7.11643 9.79878L 5.86446 9.79878L 5.86446 1.18375L 1.28491 1.18375L 1.28491 9.79878L 2.01089e-06 9.79878Z" stroke-width="0.15" stroke-miterlimit="10" transform="translate(115.675 9.99599)" stroke="white"/>
</g>
<g id="Vector_19">
<path d="M -3.01634e-06 9.79878L -3.01634e-06 -1.25434e-07L 1.25197 -1.25434e-07L 1.25197 4.20887L 6.16099 4.20887L 6.16099 -1.25434e-07L 7.4459 -1.25434e-07L 7.4459 9.79878L 6.16099 9.79878L 6.16099 5.35974L 1.25197 5.35974L 1.25197 9.79878L -3.01634e-06 9.79878Z" transform="translate(125.064 9.99599)" fill="white"/>
</g>
<g id="Vector_20">
<path d="M -3.01634e-06 9.79878L -3.01634e-06 -1.25434e-07L 1.25197 -1.25434e-07L 1.25197 4.20887L 6.16099 4.20887L 6.16099 -1.25434e-07L 7.4459 -1.25434e-07L 7.4459 9.79878L 6.16099 9.79878L 6.16099 5.35974L 1.25197 5.35974L 1.25197 9.79878L -3.01634e-06 9.79878Z" stroke-width="0.15" stroke-miterlimit="10" transform="translate(125.064 9.99599)" stroke="white"/>
</g>
<g id="Vector_21">
<path d="M 8.666 8.77578C 8.20342 9.25809 7.64511 9.63879 7.02676 9.89357C 6.40841 10.1484 5.74362 10.2716 5.07484 10.2555C 4.40136 10.2702 3.73205 10.1464 3.10857 9.89186C 2.48508 9.6373 1.92077 9.25739 1.45074 8.77578C 0.504741 7.79718 -0.0161977 6.48559 0.00108486 5.1259C -0.0129027 4.45184 0.108119 3.78179 0.35705 3.15503C 0.605982 2.52828 0.97782 1.95744 1.45074 1.47602C 2.41236 0.5302 3.70825 3.00862e-07 5.05836 3.00862e-07C 6.40848 3.00862e-07 7.70438 0.5302 8.666 1.47602C 9.13594 1.95959 9.50583 2.53081 9.75456 3.15706C 10.0033 3.78331 10.126 4.45232 10.1156 5.1259C 10.1329 6.48559 9.612 7.79718 8.666 8.77578ZM 2.40617 7.95373C 3.11998 8.64867 4.07767 9.03765 5.07484 9.03765C 6.07201 9.03765 7.0297 8.64867 7.74351 7.95373C 8.10546 7.57922 8.38823 7.13588 8.57501 6.65007C 8.76179 6.16427 8.84876 5.64593 8.83073 5.1259C 8.84876 4.60587 8.76179 4.08753 8.57501 3.60173C 8.38823 3.11592 8.10546 2.67257 7.74351 2.29806C 7.0297 1.60313 6.07201 1.21415 5.07484 1.21415C 4.07767 1.21415 3.11998 1.60313 2.40617 2.29806C 2.03983 2.67096 1.75199 3.11327 1.5596 3.59894C 1.36722 4.0846 1.27418 4.60379 1.28599 5.1259C 1.27418 5.64801 1.36722 6.16719 1.5596 6.65286C 1.75199 7.13852 2.03983 7.58084 2.40617 7.95373Z" transform="translate(134.124 9.76965)" fill="white"/>
</g>
<g id="Vector_22">
<path d="M 8.666 8.77578C 8.20342 9.25809 7.64511 9.63879 7.02676 9.89358C 6.40841 10.1484 5.74362 10.2716 5.07484 10.2555C 4.40136 10.2702 3.73205 10.1464 3.10857 9.89186C 2.48508 9.6373 1.92077 9.25739 1.45074 8.77578C 0.504741 7.79718 -0.0161977 6.48559 0.00108486 5.1259C -0.0129027 4.45184 0.108119 3.78179 0.35705 3.15503C 0.605982 2.52828 0.97782 1.95744 1.45074 1.47602C 2.41236 0.5302 3.70825 3.00862e-07 5.05836 3.00862e-07C 6.40848 3.00862e-07 7.70438 0.5302 8.666 1.47602C 9.13594 1.95959 9.50583 2.53081 9.75456 3.15706C 10.0033 3.78331 10.126 4.45232 10.1156 5.1259C 10.1329 6.48559 9.612 7.79718 8.666 8.77578L 8.666 8.77578ZM 2.40617 7.95373C 3.11998 8.64867 4.07767 9.03765 5.07484 9.03765C 6.07201 9.03765 7.0297 8.64867 7.74351 7.95373C 8.10546 7.57922 8.38823 7.13588 8.57501 6.65007C 8.76179 6.16427 8.84876 5.64593 8.83073 5.1259C 8.84876 4.60587 8.76179 4.08753 8.57501 3.60173C 8.38823 3.11592 8.10546 2.67257 7.74351 2.29806C 7.0297 1.60313 6.07201 1.21415 5.07484 1.21415C 4.07767 1.21415 3.11998 1.60313 2.40617 2.29806C 2.03983 2.67096 1.75199 3.11327 1.5596 3.59894C 1.36722 4.0846 1.27418 4.60379 1.28599 5.1259C 1.27418 5.64801 1.36722 6.16719 1.5596 6.65286C 1.75199 7.13852 2.03983 7.58084 2.40617 7.95373L 2.40617 7.95373Z" stroke-width="0.15" stroke-miterlimit="10" transform="translate(134.124 9.76965)" stroke="white"/>
</g>
<g id="Vector_23">
<path d="M -5.02723e-06 9.86551L -5.02723e-06 0.000965551L 3.55822 0.000965551C 4.29153 -0.01838 5.00254 0.25364 5.535 0.757247C 5.81449 0.988516 6.03707 1.28073 6.18559 1.61137C 6.3341 1.94202 6.40458 2.30228 6.39161 2.66439C 6.39703 3.0972 6.27065 3.52146 6.0292 3.88102C 5.79215 4.23719 5.46165 4.52154 5.07375 4.70306C 5.54557 4.86384 5.95856 5.16152 6.25982 5.55799C 6.56362 5.9541 6.72598 6.44022 6.72107 6.93903C 6.73063 7.31821 6.65581 7.69478 6.50199 8.04162C 6.34817 8.38846 6.11917 8.69693 5.83152 8.94482C 5.26462 9.46051 4.5229 9.74252 3.7559 9.73398L -5.02723e-06 9.86551ZM 1.25196 4.2756L 3.55822 4.2756C 3.77486 4.28252 3.99039 4.24194 4.18962 4.15672C 4.38886 4.0715 4.56694 3.94372 4.71134 3.78237C 4.97255 3.50523 5.12465 3.14323 5.13965 2.76304C 5.14121 2.56814 5.10417 2.37486 5.03067 2.19428C 4.95717 2.01371 4.84865 1.84941 4.71134 1.71082C 4.57264 1.56223 4.40414 1.44445 4.21682 1.36513C 4.0295 1.28582 3.82756 1.24675 3.62411 1.25047L 1.25196 1.25047L 1.25196 4.2756ZM 1.25196 8.64888L 3.78884 8.64888C 4.01067 8.6584 4.23188 8.61916 4.43684 8.53393C 4.64179 8.4487 4.82549 8.31956 4.97492 8.15565C 5.24797 7.87003 5.4113 7.49743 5.43616 7.10344C 5.42525 6.69658 5.26047 6.30891 4.97492 6.01834C 4.81821 5.85258 4.62929 5.72043 4.4197 5.62998C 4.21011 5.53952 3.98425 5.49265 3.7559 5.49223L 1.25196 5.49223L 1.25196 8.64888Z" transform="translate(149.412 9.86363)" fill="white"/>
</g>
<g id="Vector_24">
<path d="M -5.02723e-06 9.86551L -5.02723e-06 0.000965551L 3.55822 0.000965551C 4.29153 -0.01838 5.00254 0.25364 5.535 0.757247C 5.81449 0.988516 6.03707 1.28073 6.18559 1.61137C 6.3341 1.94202 6.40458 2.30228 6.39161 2.66439C 6.39703 3.0972 6.27065 3.52146 6.0292 3.88102C 5.79215 4.23719 5.46165 4.52154 5.07375 4.70306L 5.07375 4.70306C 5.54557 4.86384 5.95856 5.16152 6.25982 5.55799C 6.56362 5.9541 6.72598 6.44022 6.72107 6.93903C 6.73063 7.31821 6.65581 7.69478 6.50199 8.04162C 6.34816 8.38846 6.11917 8.69693 5.83152 8.94482C 5.26462 9.46051 4.5229 9.74252 3.7559 9.73398L -5.02723e-06 9.86551ZM 1.25196 4.2756L 3.55822 4.2756C 3.77486 4.28252 3.99039 4.24194 4.18962 4.15672C 4.38886 4.0715 4.56694 3.94372 4.71134 3.78237C 4.97255 3.50523 5.12465 3.14323 5.13965 2.76304C 5.14121 2.56814 5.10417 2.37486 5.03067 2.19428C 4.95717 2.01371 4.84865 1.84941 4.71134 1.71082C 4.57264 1.56223 4.40414 1.44445 4.21682 1.36513C 4.0295 1.28582 3.82756 1.24675 3.62411 1.25047L 1.25196 1.25047L 1.25196 4.2756ZM 1.25196 8.64888L 3.78884 8.64888C 4.01067 8.6584 4.23188 8.61916 4.43684 8.53393C 4.64179 8.4487 4.82549 8.31956 4.97492 8.15565C 5.24797 7.87003 5.4113 7.49743 5.43616 7.10344C 5.42525 6.69658 5.26047 6.30891 4.97492 6.01834C 4.81821 5.85258 4.62929 5.72043 4.4197 5.62998C 4.21011 5.53952 3.98425 5.49265 3.7559 5.49223L 1.25196 5.49223L 1.25196 8.64888Z" stroke-width="0.15" stroke-miterlimit="10" transform="translate(149.412 9.86363)" stroke="white"/>
</g>
</g>
</g>
<defs>

<linearGradient id="paint0_linear" x2="1" gradientUnits="userSpaceOnUse" gradientTransform="translate(0 -1.41392) scale(16.6709 16.6382)">
<stop stop-color="#FFE000"/>
<stop offset="0.42" stop-color="#F9BB00"/>
<stop offset="0.78" stop-color="#F5A300"/>
<stop offset="1" stop-color="#F49A00"/>
</linearGradient>
<linearGradient id="paint1_linear" x2="1" gradientUnits="userSpaceOnUse" gradientTransform="translate(0 -3.10733) scale(27.3126 27.259)">
<stop stop-color="#E6393D"/>
<stop offset="1" stop-color="#C70E66"/>
</linearGradient>
<linearGradient id="paint2_linear" x2="1" gradientUnits="userSpaceOnUse" gradientTransform="translate(0 -3.10683) scale(27.3126 27.259)">
<stop stop-color="#229866"/>
<stop offset="0.15" stop-color="#339F64"/>
<stop offset="0.52" stop-color="#5BAE5E"/>
<stop offset="0.82" stop-color="#73B85B"/>
<stop offset="1" stop-color="#7CBB5A"/>
</linearGradient>

</defs>
</svg>

